<mxfile host="app.diagrams.net" modified="2024-04-22T15:50:38.406Z" agent="Mozilla/5.0 (Windows NT 10.0; Win64; x64) AppleWebKit/537.36 (KHTML, like Gecko) Chrome/123.0.0.0 Safari/537.36 Edg/123.0.0.0" etag="80fdFUP9hGSxr_4FHAYg" version="24.2.2" type="github">
  <diagram name="Page-1" id="WIwlpubPlfTYMNJWYwAD">
    <mxGraphModel dx="1242" dy="577" grid="1" gridSize="10" guides="1" tooltips="1" connect="1" arrows="1" fold="1" page="1" pageScale="1" pageWidth="827" pageHeight="1169" math="0" shadow="0">
      <root>
        <mxCell id="0" />
        <mxCell id="1" parent="0" />
        <mxCell id="XWTwcJy3mHi1cxzS660l-8" value="" style="edgeStyle=orthogonalEdgeStyle;rounded=0;orthogonalLoop=1;jettySize=auto;html=1;" parent="1" source="XWTwcJy3mHi1cxzS660l-1" target="XWTwcJy3mHi1cxzS660l-3" edge="1">
          <mxGeometry relative="1" as="geometry" />
        </mxCell>
        <mxCell id="XWTwcJy3mHi1cxzS660l-1" value="Research Question" style="rounded=0;whiteSpace=wrap;html=1;" parent="1" vertex="1">
          <mxGeometry x="80" y="350" width="130" height="50" as="geometry" />
        </mxCell>
        <mxCell id="XWTwcJy3mHi1cxzS660l-14" value="" style="edgeStyle=orthogonalEdgeStyle;rounded=0;orthogonalLoop=1;jettySize=auto;html=1;entryX=0;entryY=0.5;entryDx=0;entryDy=0;" parent="1" source="XWTwcJy3mHi1cxzS660l-2" target="XWTwcJy3mHi1cxzS660l-11" edge="1">
          <mxGeometry relative="1" as="geometry">
            <Array as="points">
              <mxPoint x="280" y="535" />
              <mxPoint x="280" y="493" />
            </Array>
          </mxGeometry>
        </mxCell>
        <mxCell id="XWTwcJy3mHi1cxzS660l-2" value="Use-case Studies" style="rounded=0;whiteSpace=wrap;html=1;" parent="1" vertex="1">
          <mxGeometry x="80" y="510" width="130" height="50" as="geometry" />
        </mxCell>
        <mxCell id="XWTwcJy3mHi1cxzS660l-9" value="" style="edgeStyle=orthogonalEdgeStyle;rounded=0;orthogonalLoop=1;jettySize=auto;html=1;" parent="1" source="XWTwcJy3mHi1cxzS660l-3" edge="1">
          <mxGeometry relative="1" as="geometry">
            <mxPoint x="145" y="510" as="targetPoint" />
          </mxGeometry>
        </mxCell>
        <mxCell id="XWTwcJy3mHi1cxzS660l-12" value="" style="edgeStyle=orthogonalEdgeStyle;rounded=0;orthogonalLoop=1;jettySize=auto;html=1;entryX=0;entryY=0.5;entryDx=0;entryDy=0;" parent="1" source="XWTwcJy3mHi1cxzS660l-3" target="XWTwcJy3mHi1cxzS660l-11" edge="1">
          <mxGeometry relative="1" as="geometry">
            <Array as="points">
              <mxPoint x="280" y="455" />
              <mxPoint x="280" y="493" />
            </Array>
          </mxGeometry>
        </mxCell>
        <mxCell id="XWTwcJy3mHi1cxzS660l-3" value="Systematic Literature Review" style="rounded=0;whiteSpace=wrap;html=1;" parent="1" vertex="1">
          <mxGeometry x="80" y="430" width="130" height="50" as="geometry" />
        </mxCell>
        <mxCell id="riGgcoJSYjFT7yGKQKlB-3" value="" style="edgeStyle=orthogonalEdgeStyle;rounded=0;orthogonalLoop=1;jettySize=auto;html=1;" edge="1" parent="1" source="XWTwcJy3mHi1cxzS660l-11" target="XWTwcJy3mHi1cxzS660l-15">
          <mxGeometry relative="1" as="geometry">
            <mxPoint x="400" y="352.5" as="targetPoint" />
          </mxGeometry>
        </mxCell>
        <mxCell id="XWTwcJy3mHi1cxzS660l-11" value="Critical Review and Synthesis" style="rounded=0;whiteSpace=wrap;html=1;" parent="1" vertex="1">
          <mxGeometry x="340" y="462.5" width="120" height="60" as="geometry" />
        </mxCell>
        <mxCell id="XWTwcJy3mHi1cxzS660l-15" value="Theory Extension" style="rounded=0;whiteSpace=wrap;html=1;" parent="1" vertex="1">
          <mxGeometry x="530" y="430" width="130" height="50" as="geometry" />
        </mxCell>
        <mxCell id="XWTwcJy3mHi1cxzS660l-16" value="Practical Implications" style="rounded=0;whiteSpace=wrap;html=1;" parent="1" vertex="1">
          <mxGeometry x="530" y="500" width="130" height="50" as="geometry" />
        </mxCell>
        <mxCell id="XWTwcJy3mHi1cxzS660l-19" style="edgeStyle=orthogonalEdgeStyle;rounded=0;orthogonalLoop=1;jettySize=auto;html=1;exitX=1;exitY=0.5;exitDx=0;exitDy=0;" parent="1" source="XWTwcJy3mHi1cxzS660l-11" target="XWTwcJy3mHi1cxzS660l-16" edge="1">
          <mxGeometry relative="1" as="geometry" />
        </mxCell>
      </root>
    </mxGraphModel>
  </diagram>
</mxfile>
